<svg width="1024px" height="1024px" viewBox="0 0 30.72 30.72" fill="none" xmlns="http://www.w3.org/2000/svg"><path x="2" y="4" width="20" height="16" rx="1.5" stroke="#ff0000" stroke-width="2.56" stroke-linecap="round" stroke-linejoin="round" d="M4.48 5.12H26.24A1.92 1.92 0 0 1 28.16 7.04V23.68A1.92 1.92 0 0 1 26.24 25.6H4.48A1.92 1.92 0 0 1 2.56 23.68V7.04A1.92 1.92 0 0 1 4.48 5.12z"/><path x="13" y="13" width="9" height="7" rx="1.5" stroke="#fff" stroke-width="2.56" stroke-linecap="round" stroke-linejoin="round" d="M18.56 16.64H26.24A1.92 1.92 0 0 1 28.16 18.56V23.68A1.92 1.92 0 0 1 26.24 25.6H18.56A1.92 1.92 0 0 1 16.64 23.68V18.56A1.92 1.92 0 0 1 18.56 16.64z"/></svg>